# xmcd CD database file
#
# Track frame offsets:
#	150
#	12246
#	26007
#	39156
#	52038
#	58665
#	78847
#	96009
#	115290
#	131951
#	138633
#	147306
#	160915
#	194111
#	216911
#	230256
#	241525
#	277506
#	288696
#	297385
#	306057
#	317692
#
# Disc length: 4494 seconds
#
# Revision: 0
# Processed by: cddbd v1.5.2PL0 Copyright (c) Steve Scherf et al.
# Submitted via: Feurio! 1.68 - http://www.feurio.com
#
DISCID=43118c16
DTITLE=Various Artist - Angola Prison Spirituals
DYEAR=1900
DGENRE=Spiritual
TTITLE0=Andy Mosley and Robert Pete Williams - I'm On My Way
TTITLE1=Robert Pete Williams - Church On Fire..
TTITLE2=Robert Guitar Welch - What Shall I Do
TTITLE3=Angola Quartet - Brother Norah
TTITLE4=Tom Dutson and Robert Pete Williams - Little School Song
TTITLE5=Robert Pete Williams - Dyin' Soul
TTITLE6=Roosevelt Charles - Let My People Go
TTITLE7=Robert Pete Williams - So Much Is Happenin' In The New
TTITLE8=Tom Dutson and Robert Pete Williams - Dig My Grave
TTITLE9=Andy Moseley and Hogman Maxey - Brother Mosely
TTITLE10=Angola Quartet No 2 - I'm Stranded On The Banks
TTITLE11=Robert Pete Williams - I'm Going Back
TTITLE12=Rev Benjamin E Osborne - The Old Ship Of Zion
TTITLE13=Robert Pete Williams - When I Lay My Burden Down
TTITLE14=Angola Quartet - See How They Done My Lord
TTITLE15=Angola Quartet - Be With Me Jesus
TTITLE16=Angola Vocal Group - Rise And Fly
TTITLE17=Andy Moseley and Hogman Maxey - I Know I Got Religion
TTITLE18=Andy Moseley and Hogman Maxey - Jesus
TTITLE19=Angola Choir - I Take Jesus
TTITLE20=Angola Choir - Each Day
TTITLE21=Angola Choir - Steal Away To Jesus
EXTD=
EXTT0=
EXTT1=
EXTT2=
EXTT3=
EXTT4=
EXTT5=
EXTT6=
EXTT7=
EXTT8=
EXTT9=
EXTT10=
EXTT11=
EXTT12=
EXTT13=
EXTT14=
EXTT15=
EXTT16=
EXTT17=
EXTT18=
EXTT19=
EXTT20=
EXTT21=
PLAYORDER=
